<?xml version="1.0" encoding="utf-8"?>
<!-- Generator: Adobe Illustrator 24.2.0, SVG Export Plug-In . SVG Version: 6.00 Build 0)  -->
<svg version="1.1" id="Layer_1" xmlns="http://www.w3.org/2000/svg" xmlns:xlink="http://www.w3.org/1999/xlink" x="0px" y="0px"
	 viewBox="0 0 2007.5 1008.5" style="enable-background:new 0 0 2007.5 1008.5;" xml:space="preserve">
<g>
	<g>
		<path d="M918.7,337.1c-5.2,0-9.5,4.2-9.5,9.5V470H934V337.1H918.7z"/>
		<path d="M1125.7,337.1c-5.2,0-9.5,4.3-9.5,9.5v78c0,26.9,20.5,46.4,48.7,46.4s48.7-19.5,48.7-46.4v-87.5h-15.1
			c-5.2,0-9.5,4.3-9.5,9.5v77.1c0,15.7-9.2,25.4-24.1,25.4c-14.7,0-23.9-9.7-23.9-25.4v-86.6H1125.7z"/>
		<path d="M1268.8,337.1c-5.2,0-9.5,4.2-9.5,9.5V470h24.8V337.1H1268.8z"/>
		<path d="M1331.9,469.9h47.8c14.6,0,26.7-4.4,34.9-12.6c13.6-13.6,13.5-31,13.4-49.3c0-1.7,0-3.4,0-5c0-1.7,0-3.4,0-5
			c0.1-17.8,0.2-34.6-13.4-48.2c-8.3-8.3-20.3-12.6-34.9-12.6h-38.2c-5.2,0-9.5,4.3-9.5,9.5v123.2L1331.9,469.9L1331.9,469.9z
			 M1356.7,359.1h20.5c8.9,0,15.3,2.7,20.2,8.5l0,0c5,6.1,5.8,14.2,5.8,35.3c0,20.7-0.8,30.3-5.8,36.5c-4.8,5.8-11.2,8.6-20.2,8.6
			h-20.5V359.1z"/>
		<path d="M801.3,448V337.1H786c-5.2,0-9.5,4.2-9.5,9.5V470h84.4l10.6-22H801.3z"/>
		<path d="M1065.1,452.9c9.9-12.5,10-27.9,10-48.4v-1.9c0-22.6,0-38.9-13.2-52.1c-9.8-9.8-21.4-14.5-35.7-14.5
			c-14.4,0-26.1,4.7-35.9,14.5c-13,13-13,29-13,51.2v3.7c0,22.2,0,38.2,13,51.2c9.8,9.8,21.5,14.5,35.9,14.5l0,0h55.1v-18.2
			L1065.1,452.9L1065.1,452.9z M1002.2,403.5c0-25.4,1.2-32.2,6.6-38.2c4.1-4.7,10.5-7.4,17.5-7.4c7,0,13.2,2.6,17.3,7.4
			c5.2,5.7,6.8,11.8,6.8,38.2c0,26.4-1.6,32.4-6.8,38.2c-4.1,4.8-10.3,7.4-17.3,7.4s-13.4-2.7-17.5-7.4
			C1003.3,435.7,1002.2,428.9,1002.2,403.5z"/>
	</g>
	<g>
		<path d="M999.8,567.9v-22h-77.5c-5.2,0-9.5,4.3-9.5,9.5v123.4h87v-22h-62.2v-34h53v-22h-53v-32.9H999.8z"/>
		<path d="M1381.5,544.8c-14.4,0-26.1,4.7-35.9,14.5c-13,13-13,29-13,51.2v3.7c0,22.2,0,38.2,13,51.2c9.8,9.8,21.5,14.5,35.9,14.5
			c14.3,0,25.9-4.7,35.7-14.5c13.2-13.2,13.2-29.5,13.2-52.1v-1.9c0-22.6,0-38.9-13.2-52.1C1407.4,549.6,1395.7,544.8,1381.5,544.8z
			 M1398.8,650.6c-4.1,4.8-10.3,7.4-17.3,7.4s-13.4-2.7-17.5-7.4c-5.4-6-6.6-12.8-6.6-38.2s1.2-32.2,6.6-38.2
			c4.1-4.7,10.5-7.4,17.5-7.4s13.2,2.6,17.3,7.4c5.2,5.7,6.8,11.8,6.8,38.2C1405.5,638.8,1403.9,644.8,1398.8,650.6z"/>
		<path d="M1683,678.8l-42.8-71l0.2-0.4l35.8-61.4h-22.9c-3.4,0-6.6,1.8-8.2,4.8l-30.6,54.5V546H1599c-5.2,0-9.5,4.3-9.5,9.5v123.4
			h24.8v-68.6l40.2,68.6h28.5V678.8z"/>
		<path d="M871.9,678.8V546h-15.3c-5.2,0-9.5,4.3-9.5,9.5v74.7L798.8,546H786c-5.2,0-9.5,4.3-9.5,9.5v123.4h24.8v-84.3l48.3,84.3
			h22.3L871.9,678.8L871.9,678.8z"/>
		<path d="M1132.5,546H1049c-12.3,0-22.3,9.8-22.7,22h40.7v110.9h24.8v-111h18C1122.1,567.9,1132.1,558.1,1132.5,546z"/>
		<path d="M1529.3,678.8h28.5l-33.5-55.6l1-0.2c2.9-0.6,5.5-1.3,7.9-2c15-5.4,24-18.4,24-34.6c0-23.8-17.6-40.4-42.9-40.4h-42.7
			c-5.1,0-9.2,4.1-9.2,9.2v123.6h24.8v-53.5h10.7L1529.3,678.8z M1487.2,567.9h25.4c11.6,0,19.7,7.6,19.7,18.4s-8.1,18.4-19.7,18.4
			h-25.4V567.9z"/>
		<path d="M1289.7,548.8l-20.7,83.9l-22.9-79.1c-1.3-4.5-5.4-7.6-10.1-7.6h-2.7c-4.7,0-8.8,3.1-10.1,7.6l-22.9,79.1L1179,546h-21.1
			c-2.4,0-4.2,2.3-3.5,4.6l34.2,128.2h20.8l25.2-83.2l0.7,2.2l24.5,81h20.8l35.6-132.8h-23C1291.6,546,1290.1,547.1,1289.7,548.8z"
			/>
	</g>
	<g>
		<g>
			<path d="M397.9,582.5c-7.5,0-14.6-4.4-17.8-11.7c-10.6-24.9-16-51.4-16-78.7c0-101.5,75.9-187.4,176.5-199.8
				c10.6-1.3,20.2,6.2,21.5,16.8c1.3,10.6-6.2,20.2-16.8,21.5c-81.3,10-142.7,79.4-142.7,161.5c0,22.1,4.3,43.5,12.9,63.6
				c4.2,9.8-0.4,21.1-10.2,25.3C403,582,400.5,582.5,397.9,582.5z"/>
		</g>
		<g>
			<path d="M439.5,475.6c-1,0-2-0.1-2.9-0.4c-6.3-1.6-10-8-8.4-14.3c16.6-64.5,74.8-109.6,141.5-109.6c34,0,67.2,12,93.3,33.7
				c5,4.1,5.7,11.5,1.5,16.5c-4.1,5-11.5,5.7-16.5,1.5c-21.9-18.2-49.7-28.2-78.3-28.2c-56,0-104.8,37.8-118.8,92
				C449.5,472.1,444.7,475.6,439.5,475.6z"/>
		</g>
		<g>
			<path d="M484.9,716.6c-1.1,0-2.3-0.2-3.4-0.5c-96-29.3-163.1-122.4-163.1-226.5c0-44.5,12.7-87.8,36.6-125.2
				c3.5-5.4,10.8-7,16.2-3.5c5.5,3.5,7,10.8,3.5,16.2c-21.5,33.5-32.9,72.4-32.9,112.5c0,93.8,60.2,177.7,146.5,204.1
				c6.2,1.9,9.7,8.4,7.8,14.6C494.6,713.4,490,716.6,484.9,716.6z"/>
		</g>
		<g>
			<path d="M566,685.7c-58,0-111-22-146.5-61c-5.7-6.2-5.2-15.9,1-21.6c6.2-5.7,15.9-5.2,21.6,1c31.4,34.5,79.6,53.1,132.2,50.9
				c8.5-0.4,15.5,6.2,15.9,14.6c0.3,8.4-6.2,15.5-14.6,15.9C572.4,685.7,569.2,685.7,566,685.7z"/>
		</g>
		<path d="M663.6,579.5c-4.3-4.8-11.7-5.3-16.6-1c-9.6,8.5-20.4,15.4-32.1,20.5c-0.7,0.3-1.3,0.6-2,0.9c-1.6,0.7-3.3,1.3-5,2
			c-0.1,0.1-0.3,0.1-0.4,0.2c-2,0.7-4,1.4-6.1,2c-4.6,1.4-9.2,2.5-13.9,3.4c-0.1,0-0.2,0-0.2,0c-1.3,0.2-2.7,0.4-4,0.6
			c-0.7,0.1-1.4,0.2-2.1,0.3c-1,0.1-2.1,0.3-3.1,0.4c-1.8,0.2-3.6,0.3-5.4,0.4c-0.5,0-1,0-1.6,0.1c-1.5,0.1-3.1,0.1-4.6,0.1
			c-0.6,0-1.3,0-1.9,0c-12.6-0.1-24.9-2.1-36.8-5.9c-6.2-2-12.8,1.4-14.8,7.6c-2,6.2,1.4,12.8,7.6,14.8c13.6,4.4,27.9,6.8,42.3,7
			c0.1,0,0.2,0,0.2,0c0.8,0,1.6,0,2.3,0c0,0,0,0,0.1,0l0,0l0,0c2.3,0,4.6-0.1,6.9-0.2c0.8,0,1.5-0.1,2.3-0.1c1.5-0.1,3-0.2,4.5-0.4
			c1.9-0.2,3.9-0.4,5.8-0.7c0.7-0.1,1.5-0.2,2.2-0.3c1.6-0.2,3.2-0.5,4.8-0.8c0.2,0,0.5-0.1,0.7-0.1c7.6-1.4,15.1-3.5,22.5-6.2
			c0.3-0.1,0.6-0.2,0.9-0.3c1.9-0.7,3.7-1.4,5.5-2.2c0.9-0.4,1.8-0.8,2.7-1.2c0.6-0.3,1.3-0.5,1.9-0.8c0.2-0.1,0.3-0.2,0.5-0.3
			c13-6,25-13.7,35.7-23.3C667.4,591.7,667.9,584.3,663.6,579.5z"/>
	</g>
</g>
</svg>
